<svg width="576" height="512" viewBox="0 0 576 512" fill="none" xmlns="http://www.w3.org/2000/svg">
<g clip-path="url(#clip0_28_5)">
<path d="M290.8 48.6L369.2 78.3L288 109.5L206.8 78.3L285.2 48.6C287 47.9 289 47.9 290.9 48.6H290.8ZM136 92.5V204.7C134.7 205.1 133.4 205.5 132.1 206L36.1 242.4C14.4 250.6 0 271.5 0 294.7V413.9C0 436.1 13.1 456.2 33.5 465.2L129.5 507.4C143.9 513.7 160.2 513.7 174.6 507.4L288 457.5L401.5 507.4C415.9 513.7 432.2 513.7 446.6 507.4L542.6 465.2C562.9 456.3 576.1 436.1 576.1 413.9V294.7C576.1 271.4 561.7 250.6 540 242.3L444 205.9C442.7 205.4 441.4 205 440.1 204.6V92.5C440.1 69.2 425.7 48.4 404 40.1L308 3.70001C295.2 -1.09999 281.1 -1.09999 268.3 3.70001L172.3 40.1C150.4 48.4 136 69.3 136 92.5ZM392 210.6L309.6 241.8V152.6L392 121V210.6ZM154.8 250.9L233.2 280.6L152 311.7L70.8 280.6L149.2 250.9C151 250.2 153 250.2 154.9 250.9H154.8ZM173.6 455.3V354.8L256 323.2V419.1L173.6 455.3V455.3ZM421.2 250.9C423 250.2 425 250.2 426.9 250.9L505.3 280.6L424 311.7L342.8 280.6L421.2 250.9V250.9ZM523.2 421.2L445.6 455.3V354.8L528 323.2V413.9C528 417.1 526.1 419.9 523.2 421.2Z" fill="white"/>
</g>
<defs>
<clipPath id="clip0_28_5">
<rect width="576" height="512" fill="white"/>
</clipPath>
</defs>
</svg>
